<?xml version="1.0" standalone="no"?><!DOCTYPE svg PUBLIC "-//W3C//DTD SVG 1.1//EN" "http://www.w3.org/Graphics/SVG/1.1/DTD/svg11.dtd"><svg class="icon" width="200px" height="200.00px" viewBox="0 0 1024 1024" version="1.1" xmlns="http://www.w3.org/2000/svg"><path fill="#707070" d="M512 133.76a160 160 0 1 1-160 160 160 160 0 0 1 160-160m0-64a224 224 0 1 0 224 224 224 224 0 0 0-224-224zM581.76 645.76a308.8 308.8 0 0 1 301.76 244.48H140.48a308.8 308.8 0 0 1 301.76-244.48h139.84m0-64h-139.84A372.48 372.48 0 0 0 69.76 954.24h884.48a372.48 372.48 0 0 0-372.48-372.48z"  /></svg>