<?xml version="1.0" standalone="no"?><!DOCTYPE svg PUBLIC "-//W3C//DTD SVG 1.1//EN" "http://www.w3.org/Graphics/SVG/1.1/DTD/svg11.dtd"><svg class="icon" width="200px" height="200.00px" viewBox="0 0 1024 1024" version="1.1" xmlns="http://www.w3.org/2000/svg"><path fill="#707070" d="M956.416 177.194667H230.997333L218.453333 73.386667A35.968 35.968 0 0 0 183.722667 42.666667h-6.912a29.44 29.44 0 0 0-8.277334 1.152H79.872c-20.48 0-37.205333 15.36-37.205333 34.133333 0 18.773333 16.725333 34.090667 37.205333 34.090667h74.325333l70.997334 585.6a35.968 35.968 0 0 0 34.730666 30.805333h6.912a29.44 29.44 0 0 0 8.149334-1.152h586.666666c20.48 0 37.162667-15.36 37.162667-34.133333 0-18.730667-16.725333-34.090667-37.205333-34.090667H289.450667l-8.704-71.68h582.698666c17.066667 0 34.133333-13.653333 37.888-30.293333l79.232-349.653334c3.797333-16.64-7.082667-30.250667-24.149333-30.250666zM288.128 877.653333a82.858667 82.858667 0 1 0 165.717333 0 82.858667 82.858667 0 0 0-165.76 0z m410.666667 0a82.858667 82.858667 0 1 0 165.717333 0 82.858667 82.858667 0 0 0-165.717333 0z" /></svg>